#!OML:ASF E:\acrobat2\Project_11_07_03\Capture day 1\Session 1\Acrobat.ASF
:FULLY-SPECIFIED
:DEGREES
611
root 1.83961 18.0102 28.8442 357.073 -77.9569 9.48172
lowerback -2.84051 -0.0873466 -4.73122
upperback -3.15292 -0.13408 -1.86105
thorax -1.64842 -0.0238234 0.736272
lowerneck 0.601049 -2.24709 0.887194
upperneck 0.755517 -3.00509 1.29816
head 0.137313 -1.50164 0.248005
rclavicle -6.98231e-015 -7.95139e-016
rhumerus -19.0072 -35.0672 -0.261
rradius 22.6167
rwrist 4.56495
rhand -15.8434 -49.1265
rfingers 7.12502
rthumb 10.3512 -438.852
lclavicle -6.98231e-015 -7.95139e-016
lhumerus 2.35319 16.0542 -0.960077
lradius 23.4399
lwrist 15.0099
lhand -16.965 -7.78326
lfingers 7.12502
lthumb 9.26915 21.993
rfemur 15.2225 27.8788 10.7999
rtibia -6.58257
rfoot -56.8127 -32.6365
rtoes 31.394
lfemur 5.54171 -7.33977 -9.29493
ltibia -4.94978
lfoot -18.1441 -2.14885
ltoes 50.2156
612
root 1.82365 17.9953 28.814 357.004 -78.0314 9.62839
lowerback -3.00281 -0.0864464 -4.76872
upperback -3.22528 -0.129762 -1.94338
thorax -1.63296 -0.0230063 0.672342
lowerneck 0.584027 -2.22697 1.04913
upperneck 0.84474 -2.97943 1.26102
head 0.163767 -1.4879 0.210028
rclavicle 7.14382e-015 0
rhumerus -18.8804 -35.323 -0.416966
rradius 22.4242
rwrist 5.0829
rhand -16.2313 -49.4461
rfingers 7.12502
rthumb 9.97703 -439.19
lclavicle 7.14382e-015 0
lhumerus 2.73334 16.9545 -0.817691
lradius 23.2047
lwrist 13.8376
lhand -16.834 -8.0234
lfingers 7.12502
lthumb 9.39554 21.7472
rfemur 15.4185 28.5691 11.2704
rtibia -6.58211
rfoot -57.976 -32.4976
rtoes 32.1039
lfemur 5.47731 -7.4019 -9.18076
ltibia -4.86935
lfoot -18.209 -1.91732
ltoes 49.6607
613
root 1.80647 17.9832 28.7862 355.847 -77.997 10.8242
lowerback -3.09948 0.0175597 -4.95618
upperback -3.29164 0.00877431 -2.088
thorax -1.65525 0.0473547 0.630124
lowerneck 0.657934 -2.36136 1.07278
upperneck 0.861657 -3.15646 1.1327
head 0.154684 -1.57652 0.168723
rclavicle -1.93815e-015 -3.97569e-015
rhumerus -19.2837 -34.4017 -0.175154
rradius 22.5843
rwrist 4.472
rhand -16.3572 -49.7325
rfingers 7.12502
rthumb 9.85554 -439.482
lclavicle -1.93815e-015 -3.97569e-015
lhumerus 3.30457 16.707 -0.657559
lradius 23.1909
lwrist 13.7782
lhand -16.8234 -8.01487
lfingers 7.12502
lthumb 9.40571 21.7553
rfemur 15.5714 28.6154 11.2281
rtibia -6.69954
rfoot -58.5303 -32.1301
rtoes 33.0332
lfemur 5.36821 -7.18007 -9.34012
ltibia -4.6122
lfoot -17.9351 -1.94473
ltoes 49.3382
614
root 1.78951 17.9692 28.7532 354.929 -78.0435 11.7746
lowerback -3.21464 0.0640911 -5.1544
upperback -3.32219 0.0744603 -2.23467
thorax -1.62701 0.0801566 0.590832
lowerneck 0.774656 -2.36929 1.19224
upperneck 0.806081 -3.16343 1.07281
head 0.116423 -1.58064 0.133755
rclavicle -5.46658e-016 8.74653e-015
rhumerus -19.5157 -31.4539 -0.512477
rradius 23.0311
rwrist 1.89442
rhand -16.2969 -49.995
rfingers 7.12502
rthumb 9.9137 -439.742
lclavicle -5.46658e-016 8.74653e-015
lhumerus 3.59877 16.0239 -0.840435
lradius 23.3483
lwrist 14.2843
lhand -16.7967 -7.84525
lfingers 7.12502
lthumb 9.43149 21.9237
rfemur 15.7783 29.1295 11.4312
rtibia -6.79139
rfoot -59.2972 -32.7031
rtoes 32.318
lfemur 5.26541 -6.62949 -9.32941
ltibia -4.36114
lfoot -17.4868 -2.05835
ltoes 49.1034
615
root 1.77437 17.9554 28.718 354.896 -78.1541 11.7758
lowerback -3.2799 0.0878342 -5.14937
upperback -3.32886 0.106492 -2.3449
thorax -1.5988 0.0930817 0.475352
lowerneck 0.747803 -2.31528 1.11423
upperneck 0.924383 -3.09806 1.41465
head 0.163091 -1.5475 0.247173
rclavicle 1.49337e-014 -1.59028e-014
rhumerus -19.4211 -34.1882 -0.189606
rradius 22.4449
rwrist 5.10208
rhand -15.9727 -49.551
rfingers 7.12502
rthumb 10.2265 -439.282
lclavicle 1.49337e-014 -1.59028e-014
lhumerus 3.7144 15.1487 -1.25882
lradius 23.531
lwrist 15.0576
lhand -16.849 -7.67803
lfingers 7.12502
lthumb 9.38102 22.0932
rfemur 16.1424 30.1265 12.1189
rtibia -6.8227
rfoot -60.5015 -33.5124
rtoes 31.5344
lfemur 5.29546 -6.5092 -9.12926
ltibia -4.2632
lfoot -17.5095 -2.12804
ltoes 49.1287
616
root 1.76122 17.9456 28.69 353.523 -78.1397 13.1144
lowerback -3.27949 0.08458 -5.36394
upperback -3.34587 0.0992376 -2.49058
thorax -1.61808 0.0906843 0.444695
lowerneck 0.739996 -2.31914 0.951541
upperneck 1.01036 -3.10847 1.64541
head 0.196674 -1.55252 0.341998
rclavicle -1.01132e-014 1.74931e-014
rhumerus -19.3376 -36.5501 0.130122
rradius 21.8989
rwrist 7.93755
rhand -15.6449 -49.0416
rfingers 7.12502
rthumb 10.5427 -438.757
lclavicle -1.01132e-014 1.74931e-014
lhumerus 3.93292 15.3364 -1.25503
lradius 23.4321
lwrist 14.7208
lhand -16.7668 -7.65529
lfingers 7.12502
lthumb 9.46032 22.1124
rfemur 16.6429 31.0766 12.4749
rtibia -7.01142
rfoot -62.0515 -32.9911
rtoes 33.364
lfemur 5.38878 -6.89642 -9.4379
ltibia -4.25918
lfoot -17.91 -1.92989
ltoes 49.0262
617
root 1.74944 17.9382 28.6684 351.119 -78.1493 15.5961
lowerback -3.36626 0.0450845 -5.75005
upperback -3.37331 0.049211 -2.70043
thorax -1.59882 0.0674595 0.442528
lowerneck 0.761129 -2.31192 1.12368
upperneck 0.911061 -3.09348 1.44006
head 0.157215 -1.54544 0.253547
rclavicle -1.26725e-015 1.43125e-014
rhumerus -19.1134 -37.716 0.0580692
rradius 21.5259
rwrist 9.41
rhand -15.4378 -48.6072
rfingers 7.12502
rthumb 10.7425 -438.313
lclavicle -1.26725e-015 1.43125e-014
lhumerus 4.14426 16.6384 -0.943174
lradius 23.1417
lwrist 13.2687
lhand -16.5371 -7.88546
lfingers 7.12502
lthumb 9.682 21.872
rfemur 16.9181 31.7718 12.3143
rtibia -7.27177
rfoot -63.5463 -30.9657
rtoes 37.3009
lfemur 5.38149 -7.11464 -10.039
ltibia -4.19435
lfoot -18.1123 -1.81239
ltoes 49.3203
618
root 1.73942 17.931 28.6438 350.94 -78.4386 15.9149
lowerback -3.55443 0.12164 -5.62926
upperback -3.42862 0.155256 -2.81265
thorax -1.55484 0.114527 0.262151
lowerneck 0.674463 -2.36079 1.35779
upperneck 0.875181 -3.1564 1.23218
head 0.153319 -1.57621 0.153094
rclavicle -5.86415e-015 -1.51076e-014
rhumerus -19.1197 -37.2508 -0.13733
rradius 21.5313
rwrist 9.14646
rhand -15.2885 -48.6187
rfingers 7.12502
rthumb 10.8865 -438.317
lclavicle -5.86415e-015 -1.51076e-014
lhumerus 4.25145 16.3589 -1.09186
lradius 23.1527
lwrist 13.3983
lhand -16.6885 -7.90438
lfingers 7.12502
lthumb 9.5359 21.8598
rfemur 16.8236 32.3674 12.5406
rtibia -7.3025
rfoot -63.5822 -32.8769
rtoes 34.5147
lfemur 5.25786 -6.90541 -9.92385
ltibia -4.08035
lfoot -18.0939 -2.18911
ltoes 50.6993
619
root 1.72898 17.9267 28.6159 352.783 -78.761 14.045
lowerback -3.58653 0.206074 -5.12257
upperback -3.47643 0.259494 -2.76368
thorax -1.58555 0.159161 0.0328651
lowerneck 0.644764 -2.4129 1.37233
upperneck 0.852927 -3.22542 1.17972
head 0.150274 -1.61071 0.134955
rclavicle 1.90088e-014 -4.77083e-014
rhumerus -19.0517 -37.0601 -0.25706
rradius 21.5334
rwrist 9.20962
rhand -15.305 -48.7583
rfingers 7.12502
rthumb 10.8706 -438.457
lclavicle 1.90088e-014 -4.77083e-014
lhumerus 4.20602 14.8935 -1.58671
lradius 23.3414
lwrist 14.6887
lhand -16.9004 -7.63742
lfingers 7.12502
lthumb 9.33143 22.1361
rfemur 16.902 33.0319 13.4292
rtibia -7.17671
rfoot -63.948 -33.7894
rtoes 33.3048
lfemur 5.2917 -6.93618 -9.32317
ltibia -4.042
lfoot -18.3414 -2.39553
ltoes 51.5685
